<svg viewBox="0 0 45 45" version="1.1" xmlns="http://www.w3.org/2000/svg" xmlns:xlink="http://www.w3.org/1999/xlink">

<use xlink:href="#path0_fill" fill="#FFFFFF"/>

<defs>
<path id="path0_fill" d="M 44.4062 12.0308C 44.0655 11.6927 43.5134 11.6927 43.1726 12.0308C 43.0534 12.1491 42.9314 12.2609 42.8071 12.3677L 36.1377 5.74774C 35.7971 5.40964 35.2449 5.40964 34.904 5.74774C 34.5634 6.08584 34.5634 6.63408 34.904 6.97218L 41.3199 13.3404C 38.4491 14.7225 34.69 14.1404 30.7469 13.5082C 30.4689 11.9168 30.223 10.3614 30.1484 8.87924L 33.7754 12.4792C 33.9457 12.6483 34.1689 12.7328 34.3922 12.7328C 34.6154 12.7328 34.8386 12.6483 35.009 12.4792C 35.3496 12.1411 35.3496 11.5929 35.009 11.2548L 30.2063 6.48776C 30.4189 4.62347 31.0796 2.92828 32.5263 1.4924L 32.5417 1.47716C 32.8818 1.13854 32.8811 0.590383 32.5399 0.252713C 32.1988 -0.0848714 31.6464 -0.0841787 31.3062 0.254444L 31.2918 0.268817C 27.7056 3.82838 28.1341 8.53447 28.9277 13.2217C 24.1228 12.4955 19.3203 12.1514 15.7889 15.6565C 12.1303 19.288 12.752 24.1885 13.5956 29.0171C 8.69923 28.2407 3.7233 27.6328 0.255474 31.0749C -0.0851581 31.413 -0.0851581 31.9613 0.255474 32.2995C 0.425834 32.4686 0.649055 32.5531 0.872277 32.5531C 1.0955 32.5531 1.31872 32.4685 1.48908 32.2995C 2.9138 30.8853 4.70359 30.3076 6.71441 30.1744L 12.1207 35.5406C 12.2911 35.7097 12.5143 35.7942 12.7375 35.7942C 12.9608 35.7942 13.184 35.7097 13.3543 35.5406C 13.695 35.2025 13.695 34.6542 13.3543 34.3161L 9.20953 30.202C 10.7148 30.3126 12.2992 30.563 13.9146 30.822C 14.5758 34.6073 15.0565 38.1891 13.4773 41.0656L 6.19958 33.8416C 5.85894 33.5036 5.3066 33.5035 4.96589 33.8416C 4.62525 34.1797 4.62525 34.7279 4.96589 35.0661L 12.456 42.5006C 12.3535 42.6144 12.247 42.7269 12.1352 42.8377L 12.1199 42.853C 11.7798 43.1916 11.7805 43.7398 12.1216 44.0774C 12.2919 44.2459 12.5148 44.3302 12.7376 44.3302C 12.9612 44.3302 13.1849 44.2453 13.3553 44.0757L 13.3698 44.0613C 16.956 40.5018 16.5274 35.7957 15.7339 31.1084C 20.5388 31.8346 25.3412 32.1788 28.8726 28.6737C 32.5312 25.0422 31.9095 20.1416 31.0659 15.3131C 35.9626 16.0896 40.9384 16.6974 44.4062 13.2554C 44.7469 12.9173 44.7469 12.369 44.4062 12.0308ZM 15.4181 29.3076C 15.0458 27.209 14.6978 25.1649 14.6932 23.2652L 17.9578 26.5056C 18.1282 26.6747 18.3514 26.7593 18.5746 26.7593C 18.7978 26.7593 19.0211 26.6747 19.1914 26.5056C 19.532 26.1675 19.532 25.6193 19.1914 25.2812L 14.8834 21.0052C 15.1198 19.7457 15.598 18.5784 16.4335 17.5361L 26.9972 28.0214C 23.9635 30.4418 19.8312 29.9989 15.4181 29.3076ZM 25.5315 19.1019L 29.7795 23.3183C 29.5435 24.5804 29.065 25.7499 28.2282 26.7941L 17.6645 16.309C 20.6983 13.8885 24.8305 14.3314 29.2436 15.0227C 29.6153 17.1182 29.9629 19.1594 29.9684 21.0568L 26.7652 17.8775C 26.4245 17.5394 25.8723 17.5394 25.5315 17.8775C 25.1909 18.2156 25.1909 18.7638 25.5315 19.1019Z"/>
</defs>
</svg>
