<svg  viewBox="0 0 43 45" version="1.1" xmlns="http://www.w3.org/2000/svg" xmlns:xlink="http://www.w3.org/1999/xlink">

<g id="Canvas" transform="translate(-518 8)">
<g id="idea">
<g id="Group">
<g id="Group">
<g id="Vector">
<use xlink:href="#path0_fill" transform="translate(539.905 1.52934)" fill="#FFFFFF"/>
</g>
</g>
</g>
<g id="Group">
<g id="Group">
<g id="Vector">
<use xlink:href="#path1_fill" transform="translate(537.073 1.62641)" fill="#FFFFFF"/>
</g>
</g>
</g>
<g id="Group">
<g id="Group">
<g id="Vector">
<use xlink:href="#path2_fill" transform="translate(538.511 -7.74676)" fill="#FFFFFF"/>
</g>
</g>
</g>
<g id="Group">
<g id="Group">
<g id="Vector">
<use xlink:href="#path3_fill" transform="translate(548.988 1.77459)" fill="#FFFFFF"/>
</g>
</g>
</g>
<g id="Group">
<g id="Group">
<g id="Vector">
<use xlink:href="#path4_fill" transform="translate(551.332 -1.90158)" fill="#FFFFFF"/>
</g>
</g>
</g>
<g id="Group">
<g id="Group">
<g id="Vector">
<use xlink:href="#path5_fill" transform="translate(524.306 -1.91282)" fill="#FFFFFF"/>
</g>
</g>
</g>
<g id="Group">
<g id="Group">
<g id="Vector">
<use xlink:href="#path6_fill" transform="translate(518.417 12.1828)" fill="#FFFFFF"/>
</g>
</g>
</g>
<g id="Group">
<g id="Group">
<g id="Vector">
<use xlink:href="#path7_fill" transform="translate(556.638 12.1987)" fill="#FFFFFF"/>
</g>
</g>
</g>
<g id="Group">
<g id="Group">
<g id="Vector">
<use xlink:href="#path8_fill" transform="translate(524.294 24.9134)" fill="#FFFFFF"/>
</g>
</g>
</g>
<g id="Group">
<g id="Group">
<g id="Vector">
<use xlink:href="#path9_fill" transform="translate(551.321 24.9247)" fill="#FFFFFF"/>
</g>
</g>
</g>
<g id="Group">
<g id="Group">
<g id="Vector">
<use xlink:href="#path10_fill" transform="translate(539.183 34.8517)" fill="#FFFFFF"/>
</g>
</g>
</g>
<g id="Group">
<g id="Group">
<g id="Vector">
<use xlink:href="#path11_fill" transform="translate(523.674 -2.52825)" fill="#FFFFFF"/>
</g>
</g>
</g>
</g>
</g>
<defs>
<path id="path0_fill" d="M 7.99048 3.54015C 6.13537 1.54468 3.64033 0.289243 0.965257 0.00499327C 0.486452 -0.0459171 0.0563197 0.298247 0.00502854 0.773757C -0.0462626 1.24927 0.300563 1.67594 0.779542 1.72685C 3.03435 1.96643 5.13999 3.02749 6.70847 4.71455C 6.8804 4.89949 7.11478 4.99317 7.34978 4.99317C 7.56123 4.99317 7.77337 4.91724 7.94102 4.76364C 8.29509 4.4393 8.31725 3.89158 7.99048 3.54015Z"/>
<path id="path1_fill" d="M 1.73687 0.716694C 1.65374 0.245687 1.20189 -0.0693863 0.727276 0.0131266C 0.725619 0.0134729 0.722915 0.0139058 0.72056 0.0143387C 0.250042 0.096765 -0.0666894 0.540413 0.0119919 1.00926C 0.0831714 1.43273 0.452677 1.73282 0.871467 1.73282C 0.919095 1.73282 0.967421 1.72893 1.01575 1.72087C 1.02107 1.72009 1.02272 1.71975 1.02796 1.7188C 1.50249 1.63637 1.81992 1.1877 1.73687 0.716694Z"/>
<path id="path2_fill" d="M 0.872299 0C 0.390616 0 2.98149e-07 0.387629 2.98149e-07 0.865822L 2.98149e-07 2.80275C 2.98149e-07 3.28095 0.390616 3.66857 0.872299 3.66857C 1.35407 3.66857 1.7446 3.28095 1.7446 2.80275L 1.7446 0.865822C 1.7446 0.387629 1.35398 0 0.872299 0Z"/>
<path id="path3_fill" d="M 1.49732 0.252227C 1.15573 -0.0851834 0.603479 -0.0838849 0.263632 0.254998L 0.254126 0.264522C -0.0858089 0.603318 -0.0845027 1.15164 0.256828 1.48897C 0.4271 1.6572 0.649711 1.74118 0.872321 1.74118C 1.09615 1.74118 1.31999 1.65616 1.49052 1.4862L 1.50003 1.47667C 1.83996 1.13788 1.83865 0.589552 1.49732 0.252227Z"/>
<path id="path4_fill" d="M 2.86897 0.25361C 2.52816 -0.0845797 1.976 -0.0844932 1.63528 0.25361L 0.255476 1.62325C -0.0851569 1.96136 -0.0851569 2.5096 0.255476 2.8477C 0.425835 3.01679 0.648968 3.1013 0.872276 3.1013C 1.0955 3.1013 1.31872 3.01671 1.48916 2.8477L 2.86897 1.47806C 3.2096 1.13995 3.2096 0.591714 2.86897 0.25361Z"/>
<path id="path5_fill" d="M 2.86897 1.62313L 1.48917 0.253577C 1.14836 -0.084526 0.596194 -0.084526 0.255474 0.253577C -0.0851581 0.591768 -0.0851581 1.14001 0.255474 1.47811L 1.63528 2.84767C 1.80564 3.01676 2.02877 3.10127 2.25208 3.10127C 2.47539 3.10127 2.69852 3.01676 2.86897 2.84767C 3.2096 2.50948 3.2096 1.96124 2.86897 1.62313Z"/>
<path id="path6_fill" d="M 2.82363 -2.11382e-08L 0.872298 -2.11382e-08C 0.390615 -2.11382e-08 -2.72859e-08 0.387629 -2.72859e-08 0.865822C -2.72859e-08 1.34402 0.390615 1.73164 0.872298 1.73164L 2.82363 1.73164C 3.3054 1.73164 3.69593 1.34402 3.69593 0.865822C 3.69593 0.387629 3.30531 -2.11382e-08 2.82363 -2.11382e-08Z"/>
<path id="path7_fill" d="M 2.82372 -1.37399e-07L 0.872298 -1.37399e-07C 0.390615 -1.37399e-07 8.51854e-08 0.387628 8.51854e-08 0.865822C 8.51854e-08 1.34402 0.390615 1.73164 0.872298 1.73164L 2.82372 1.73164C 3.3054 1.73164 3.69602 1.34402 3.69602 0.865822C 3.69602 0.387628 3.3054 -1.37399e-07 2.82372 -1.37399e-07Z"/>
<path id="path8_fill" d="M 2.86897 0.253579C 2.52816 -0.0845248 1.976 -0.0845248 1.63528 0.253579L 0.255475 1.62314C -0.0851579 1.96133 -0.0851579 2.50956 0.255475 2.84767C 0.425834 3.01676 0.648968 3.10127 0.872277 3.10127C 1.0955 3.10127 1.31872 3.01676 1.48917 2.84767L 2.86897 1.47811C 3.2096 1.13992 3.2096 0.591682 2.86897 0.253579Z"/>
<path id="path9_fill" d="M 2.86906 1.62317L 1.48917 0.25361C 1.14836 -0.0845805 0.59602 -0.0844939 0.255475 0.25361C -0.0851573 0.591713 -0.0851573 1.13995 0.255475 1.47806L 1.63536 2.84761C 1.80572 3.01671 2.02886 3.10121 2.25216 3.10121C 2.47547 3.10121 2.6987 3.01662 2.86906 2.84761C 3.20969 2.50951 3.20969 1.96127 2.86906 1.62317Z"/>
<path id="path10_fill" d="M 0.872299 0C 0.390615 0 3.62038e-07 0.387629 3.62038e-07 0.865822C 3.62038e-07 1.34402 0.390615 1.73164 0.872299 1.73164L 0.878405 1.73164C 1.36009 1.73164 1.74765 1.34402 1.74765 0.865822C 1.74765 0.387629 1.35398 0 0.872299 0Z"/>
<path id="path11_fill" d="M 31.4027 15.5848C 31.4027 12.5389 30.5173 9.58811 28.8419 7.05134C 28.5779 6.6515 28.0372 6.53973 27.6341 6.8019C 27.2312 7.06407 27.1188 7.60079 27.3828 8.00072C 28.8713 10.2546 29.6581 12.8772 29.6581 15.5848C 29.6581 23.2234 23.3972 29.438 15.7014 29.438C 8.00552 29.438 1.7446 23.2234 1.7446 15.5848C 1.7446 7.94617 8.00552 1.73164 15.7014 1.73164C 18.4659 1.73164 21.1378 2.5321 23.4283 4.04651C 23.8291 4.31162 24.3709 4.20391 24.6378 3.80589C 24.905 3.40788 24.7964 2.87037 24.3955 2.60526C 21.8175 0.900888 18.8111 -5.54879e-08 15.7014 -5.54879e-08C 7.04363 -5.54879e-08 0 6.99134 0 15.5848C 0 21.2606 3.07319 26.2368 7.65416 28.962C 7.65381 28.9721 7.65259 28.982 7.65259 28.9923L 7.65259 31.9578C 7.65259 32.8431 8.00857 33.6468 8.58507 34.2371C 8.01878 34.7503 7.66288 35.4885 7.66288 36.3077C 7.66288 37.8538 8.93007 39.1116 10.4877 39.1116L 13.7895 39.1116C 14.2711 39.1116 14.6618 38.724 14.6618 38.2458C 14.6618 37.7676 14.2711 37.38 13.7895 37.38L 10.4877 37.38C 9.89213 37.38 9.40748 36.8989 9.40748 36.3077C 9.40748 35.7165 9.89213 35.2355 10.4877 35.2355L 10.9548 35.2355L 20.4734 35.2355L 20.9506 35.2355C 21.5463 35.2355 22.0309 35.7165 22.0309 36.3077C 22.0309 36.8989 21.5462 37.38 20.9505 37.38L 18.9796 37.38C 18.4979 37.38 18.1073 37.7676 18.1073 38.2458C 18.1073 38.724 18.4979 39.1116 18.9796 39.1116L 20.9505 39.1116C 22.5082 39.1116 23.7755 37.8538 23.7755 36.3077C 23.7755 35.4858 23.4174 34.7454 22.8478 34.2321C 23.4216 33.6422 23.7755 32.8405 23.7755 31.9578L 23.7755 28.9923C 23.7755 28.9772 23.774 28.9625 23.7732 28.9476C 28.3406 26.2192 31.4027 21.2505 31.4027 15.5848ZM 22.0309 31.9578C 22.0309 32.8103 21.3321 33.5038 20.4734 33.5038L 10.9547 33.5038C 10.0958 33.5038 9.39718 32.8102 9.39718 31.9578L 9.39718 29.8567C 11.3278 30.7001 13.4603 31.1696 15.7014 31.1696C 17.9523 31.1696 20.0937 30.6961 22.0309 29.8456L 22.0309 31.9578Z"/>
</defs>
</svg>
