<svg width="32" height="50" viewBox="0 0 32 50" version="1.1" xmlns="http://www.w3.org/2000/svg" xmlns:xlink="http://www.w3.org/1999/xlink">
<title>medicines (2)</title>
<desc>Created using Figma</desc>
<g id="Canvas" transform="translate(230 -801)">
<g id="medicines (2)">
<g id="Group">
<g id="Group">
<g id="Vector">
<use xlink:href="#path0_fill" transform="translate(-206.881 818.288)" fill="#B5B4D4"/>
</g>
</g>
</g>
<g id="Group">
<g id="Group">
<g id="Vector">
<use xlink:href="#path1_fill" transform="translate(-216.78 821.715)" fill="#B5B4D4"/>
</g>
</g>
</g>
<g id="Group">
<g id="Group">
<g id="Vector">
<use xlink:href="#path2_fill" transform="translate(-214.912 801)" fill="#B5B4D4"/>
</g>
</g>
</g>
<g id="Group">
<g id="Group">
<g id="Vector">
<use xlink:href="#path3_fill" transform="translate(-230 801)" fill="#B5B4D4"/>
</g>
</g>
</g>
<g id="Group">
<g id="Group">
<g id="Vector">
<use xlink:href="#path4_fill" transform="translate(-217.094 842.795)" fill="#B5B4D4"/>
</g>
</g>
</g>
<g id="Group">
<g id="Group">
<g id="Vector">
<use xlink:href="#path5_fill" transform="translate(-220.369 842.795)" fill="#B5B4D4"/>
</g>
</g>
</g>
</g>
</g>
<defs>
<path id="path0_fill" d="M 0.97812 -1.19209e-07L 0.963854 -1.19209e-07C 0.431613 -1.19209e-07 -1.4119e-06 0.437207 -1.4119e-06 0.976562C -1.4119e-06 1.51592 0.431613 1.95312 0.963854 1.95312L 0.97812 1.95312C 1.51036 1.95312 1.94198 1.51592 1.94198 0.976562C 1.94198 0.437207 1.51036 -1.19209e-07 0.97812 -1.19209e-07Z"/>
<path id="path1_fill" d="M 14.2219 1.39675C 12.3834 -0.465649 9.3923 -0.465552 7.55394 1.39685L 1.37871 7.65359C -0.459554 9.51619 -0.459555 12.5468 1.37861 14.4094C 1.37861 14.4094 1.37861 14.4094 1.37871 14.4094C 2.29784 15.3405 3.50507 15.806 4.7124 15.806C 5.91972 15.806 7.12734 15.3403 8.04647 14.4092L 14.2217 8.15251C 16.06 6.29001 16.0601 3.25935 14.2219 1.39675ZM 6.68329 13.0281C 5.59664 14.1292 3.82835 14.1292 2.7416 13.0283L 2.7417 13.0283C 1.65505 11.9272 1.65514 10.1356 2.7418 9.03464L 5.14796 6.59675L 9.08946 10.5902L 6.68329 13.0281ZM 12.8586 6.77136L 10.4526 9.20906L 6.51114 5.2156L 8.91712 2.7779C 10.0037 1.67683 11.772 1.67683 12.8588 2.77781C 13.9454 3.87888 13.9453 5.67038 12.8586 6.77136Z"/>
<path id="path2_fill" d="M 0.973688 0L 0.963854 0C 0.431613 0 4.58867e-07 0.437207 4.58867e-07 0.976562C 4.58867e-07 1.51592 0.431613 1.95312 0.963854 1.95312L 0.973688 1.95312C 1.50593 1.95312 1.93754 1.51592 1.93754 0.976562C 1.93754 0.437207 1.50593 0 0.973688 0Z"/>
<path id="path3_fill" d="M 27.1395 8.20312L 25.6306 8.20312L 25.6306 7.22656L 25.897 7.22656C 27.8634 7.22656 29.4632 5.60566 29.4632 3.61328C 29.4632 1.6209 27.8634 0 25.897 0L 19.3643 0C 18.8321 0 18.4005 0.437207 18.4005 0.976562C 18.4005 1.51592 18.8321 1.95312 19.3643 1.95312L 25.897 1.95312C 26.8005 1.95312 27.5355 2.69785 27.5355 3.61328C 27.5355 4.52871 26.8005 5.27344 25.897 5.27344L 24.6667 5.27344L 7.3173 5.27344L 6.08704 5.27344C 5.18352 5.27344 4.44848 4.52871 4.44848 3.61328C 4.44848 2.69785 5.18352 1.95312 6.08704 1.95312L 12.8318 1.95312C 13.364 1.95312 13.7957 1.51592 13.7957 0.976562C 13.7957 0.437207 13.364 0 12.8318 0L 6.08704 0C 4.12058 0 2.52077 1.6209 2.52077 3.61328C 2.52077 5.60566 4.12058 7.22656 6.08704 7.22656L 6.35345 7.22656L 6.35345 8.20312L 4.86053 8.20312C 2.18043 8.20312 0 10.399 0 13.0981L 0 45.105C 0 47.8041 2.18043 50 4.86053 50L 27.1396 50C 29.8196 50 32 47.8041 32 45.105L 32 13.0981C 32 10.399 29.8196 8.20312 27.1395 8.20312ZM 8.28116 7.22656L 23.7028 7.22656L 23.7028 8.20312L 8.28116 8.20312L 8.28116 7.22656ZM 30.0723 17.2882L 27.5039 17.2882C 26.9717 17.2882 26.54 17.7254 26.54 18.2647C 26.54 18.8041 26.9717 19.2413 27.5039 19.2413L 30.0723 19.2413L 30.0723 38.5745L 11.5583 38.5745L 11.5583 19.2413L 20.5681 19.2413C 21.1003 19.2413 21.532 18.8041 21.532 18.2647C 21.532 17.7254 21.1003 17.2882 20.5681 17.2882L 10.5944 17.2882C 10.0622 17.2882 9.63056 17.7254 9.63056 18.2647L 9.63056 39.5511C 9.63056 40.0904 10.0622 40.5276 10.5944 40.5276L 30.0723 40.5276L 30.0723 45.105C 30.0723 46.7271 28.7567 48.0469 27.1395 48.0469L 4.86053 48.0469C 3.24328 48.0469 1.92771 46.7271 1.92771 45.105L 1.92771 13.0981C 1.92771 11.476 3.24328 10.1562 4.86053 10.1562L 27.1396 10.1562C 28.7567 10.1562 30.0723 11.476 30.0723 13.0981L 30.0723 17.2882Z"/>
<path id="path4_fill" d="M 14.4599 3.8147e-07L 0.963855 3.8147e-07C 0.431614 3.8147e-07 -3.76506e-07 0.437207 -3.76506e-07 0.976563C -3.76506e-07 1.51592 0.431614 1.95313 0.963855 1.95313L 14.4599 1.95313C 14.9921 1.95313 15.4237 1.51592 15.4237 0.976563C 15.4237 0.437207 14.9921 3.8147e-07 14.4599 3.8147e-07Z"/>
<path id="path5_fill" d="M 0.985735 3.8147e-07L 0.963856 3.8147e-07C 0.431615 3.8147e-07 7.17715e-07 0.437207 7.17715e-07 0.976563C 7.17715e-07 1.51592 0.431615 1.95313 0.963856 1.95313L 0.985735 1.95313C 1.51798 1.95313 1.94959 1.51592 1.94959 0.976563C 1.94959 0.437207 1.51798 3.8147e-07 0.985735 3.8147e-07Z"/>
</defs>
</svg>
