<svg viewBox="0 0 40 37" version="1.1" xmlns="http://www.w3.org/2000/svg" xmlns:xlink="http://www.w3.org/1999/xlink">
<title>goal</title>
<desc>Created using Figma</desc>
<g id="Canvas" transform="translate(224 -156)">
<g id="goal">
<g id="Group">
<g id="Group">
<g id="Vector">
<use xlink:href="#path0_fill" transform="translate(-206.065 156)" fill="#FFFFFF"/>
</g>
</g>
</g>
<g id="Group">
<g id="Group">
<g id="Vector">
<use xlink:href="#path1_fill" transform="translate(-195.224 159.731)" fill="#FFFFFF"/>
</g>
</g>
</g>
<g id="Group">
<g id="Group">
<g id="Vector">
<use xlink:href="#path2_fill" transform="translate(-199.177 157.193)" fill="#FFFFFF"/>
</g>
</g>
</g>
<g id="Group">
<g id="Group">
<g id="Vector">
<use xlink:href="#path3_fill" transform="translate(-193.587 161.44)" fill="#FFFFFF"/>
</g>
</g>
</g>
<g id="Group">
<g id="Group">
<g id="Vector">
<use xlink:href="#path4_fill" transform="translate(-203.713 156.029)" fill="#FFFFFF"/>
</g>
</g>
</g>
<g id="Group">
<g id="Group">
<g id="Vector">
<use xlink:href="#path5_fill" transform="translate(-201.401 156.428)" fill="#FFFFFF"/>
</g>
</g>
</g>
<g id="Group">
<g id="Group">
<g id="Vector">
<use xlink:href="#path6_fill" transform="translate(-197.1 158.304)" fill="#FFFFFF"/>
</g>
</g>
</g>
<g id="Group">
<g id="Group">
<g id="Vector">
<use xlink:href="#path7_fill" transform="translate(-190.27 172.511)" fill="#FFFFFF"/>
</g>
</g>
</g>
<g id="Group">
<g id="Group">
<g id="Vector">
<use xlink:href="#path8_fill" transform="translate(-191.469 177.087)" fill="#FFFFFF"/>
</g>
</g>
</g>
<g id="Group">
<g id="Group">
<g id="Vector">
<use xlink:href="#path9_fill" transform="translate(-192.243 163.382)" fill="#FFFFFF"/>
</g>
</g>
</g>
<g id="Group">
<g id="Group">
<g id="Vector">
<use xlink:href="#path10_fill" transform="translate(-190.219 170.141)" fill="#FFFFFF"/>
</g>
</g>
</g>
<g id="Group">
<g id="Group">
<g id="Vector">
<use xlink:href="#path11_fill" transform="translate(-191.217 165.514)" fill="#FFFFFF"/>
</g>
</g>
</g>
<g id="Group">
<g id="Group">
<g id="Vector">
<use xlink:href="#path12_fill" transform="translate(-190.536 167.786)" fill="#FFFFFF"/>
</g>
</g>
</g>
<g id="Group">
<g id="Group">
<g id="Vector">
<use xlink:href="#path13_fill" transform="translate(-190.689 174.845)" fill="#FFFFFF"/>
</g>
</g>
</g>
<g id="Group">
<g id="Group">
<g id="Vector">
<use xlink:href="#path14_fill" transform="translate(-219.521 167.426)" fill="#FFFFFF"/>
</g>
</g>
</g>
<g id="Group">
<g id="Group">
<g id="Vector">
<use xlink:href="#path15_fill" transform="translate(-218.786 165.171)" fill="#FFFFFF"/>
</g>
</g>
</g>
<g id="Group">
<g id="Group">
<g id="Vector">
<use xlink:href="#path16_fill" transform="translate(-219.539 174.488)" fill="#FFFFFF"/>
</g>
</g>
</g>
<g id="Group">
<g id="Group">
<g id="Vector">
<use xlink:href="#path17_fill" transform="translate(-217.748 178.86)" fill="#FFFFFF"/>
</g>
</g>
</g>
<g id="Group">
<g id="Group">
<g id="Vector">
<use xlink:href="#path18_fill" transform="translate(-219.899 172.143)" fill="#FFFFFF"/>
</g>
</g>
</g>
<g id="Group">
<g id="Group">
<g id="Vector">
<use xlink:href="#path19_fill" transform="translate(-219.893 169.769)" fill="#FFFFFF"/>
</g>
</g>
</g>
<g id="Group">
<g id="Group">
<g id="Vector">
<use xlink:href="#path20_fill" transform="translate(-208.388 156.341)" fill="#FFFFFF"/>
</g>
</g>
</g>
<g id="Group">
<g id="Group">
<g id="Vector">
<use xlink:href="#path21_fill" transform="translate(-212.729 158.108)" fill="#FFFFFF"/>
</g>
</g>
</g>
<g id="Group">
<g id="Group">
<g id="Vector">
<use xlink:href="#path22_fill" transform="translate(-210.629 157.05)" fill="#FFFFFF"/>
</g>
</g>
</g>
<g id="Group">
<g id="Group">
<g id="Vector">
<use xlink:href="#path23_fill" transform="translate(-214.639 159.487)" fill="#FFFFFF"/>
</g>
</g>
</g>
<g id="Group">
<g id="Group">
<g id="Vector">
<use xlink:href="#path24_fill" transform="translate(-216.311 161.153)" fill="#FFFFFF"/>
</g>
</g>
</g>
<g id="Group">
<g id="Group">
<g id="Vector">
<use xlink:href="#path25_fill" transform="translate(-218.816 176.746)" fill="#FFFFFF"/>
</g>
</g>
</g>
<g id="Group">
<g id="Group">
<g id="Vector">
<use xlink:href="#path26_fill" transform="translate(-217.706 163.062)" fill="#FFFFFF"/>
</g>
</g>
</g>
<g id="Group">
<g id="Group">
<g id="Vector">
<use xlink:href="#path27_fill" transform="translate(-224 163.092)" fill="#FFFFFF"/>
</g>
</g>
</g>
<g id="Group">
<g id="Group">
<g id="Vector">
<use xlink:href="#path28_fill" transform="translate(-213.844 188.098)" fill="#FFFFFF"/>
</g>
</g>
</g>
</g>
</g>
<defs>
<path id="path0_fill" d="M 1.56731 0.720244C 1.52974 0.289617 1.157 -0.0298403 0.731221 0.00221591C 0.30255 0.0300085 -0.0239344 0.402603 0.00137808 0.836467C 0.0257531 1.25604 0.370049 1.57976 0.780518 1.57976C 0.795987 1.57976 0.811456 1.57929 0.827159 1.57834C 0.834737 1.57787 0.850128 1.57676 0.857706 1.57613C 1.28747 1.53784 1.60521 1.15458 1.56731 0.720244Z"/>
<path id="path1_fill" d="M 1.30293 0.201915C 0.982617 -0.0886443 0.489648 -0.0626681 0.201054 0.260816C -0.0878522 0.584615 -0.0623832 1.08386 0.258007 1.37591C 0.262304 1.37978 0.27246 1.38886 0.276757 1.39265C 0.424335 1.52143 0.605977 1.58444 0.786758 1.58444C 1.00605 1.58444 1.22418 1.49159 1.37863 1.31062C 1.65887 0.982318 1.62449 0.487499 1.30293 0.201915Z"/>
<path id="path2_fill" d="M 1.09551 0.0667598C 0.701993 -0.107812 0.242304 0.0716552 0.0675387 0.469042C -0.107696 0.867534 0.0698058 1.33417 0.464103 1.51118L 0.490586 1.52271C 0.588086 1.56337 0.689024 1.58264 0.788321 1.58264C 1.09527 1.58264 1.38645 1.39859 1.51082 1.09406C 1.67418 0.693988 1.48832 0.2362 1.09551 0.0667598Z"/>
<path id="path3_fill" d="M 1.38792 0.295171C 1.38675 0.293592 1.38058 0.286091 1.37941 0.284591C 1.10519 -0.0504995 0.616753 -0.0955047 0.284097 0.180605C -0.0485597 0.456557 -0.0952009 0.955403 0.176596 1.29262C 0.331049 1.48409 0.555893 1.58342 0.782689 1.58342C 0.956205 1.58342 1.13074 1.52539 1.27574 1.40593C 1.61019 1.13053 1.66042 0.633183 1.38792 0.295171Z"/>
<path id="path4_fill" d="M 0.85388 0.00373823L 0.846067 0.00302771C 0.41638 -0.0347923 0.0409904 0.286086 0.00302169 0.720424C -0.0347908 1.15484 0.28685 1.53833 0.716616 1.5767C 0.739975 1.57876 0.763177 1.57986 0.786146 1.57986C 1.18654 1.57986 1.52763 1.27035 1.56349 0.859624C 1.60138 0.425285 1.28372 0.042111 0.85388 0.00373823Z"/>
<path id="path5_fill" d="M 0.993888 0.0299341C 0.986779 0.0279602 0.972015 0.0241702 0.964827 0.0223542C 0.545765 -0.0802099 0.124046 0.179872 0.0222489 0.603472C -0.0792354 1.02541 0.176077 1.45075 0.592327 1.556C 0.657952 1.57321 0.723812 1.58142 0.788734 1.58142C 1.13233 1.58134 1.44725 1.35048 1.54201 0.999358C 1.65553 0.57868 1.41014 0.144657 0.993888 0.0299341Z"/>
<path id="path6_fill" d="M 1.22066 0.136869C 1.21144 0.130632 1.20215 0.124631 1.19269 0.118788C 0.826208 -0.111211 0.345191 0.00295934 0.117612 0.373343C -0.109028 0.741832 0.00190981 1.22615 0.364175 1.45757C 0.4948 1.54261 0.641442 1.58343 0.78652 1.58343C 1.03894 1.58343 1.28675 1.46002 1.4373 1.23175C 1.6766 0.868951 1.57964 0.378712 1.22066 0.136869Z"/>
<path id="path7_fill" d="M 0.862054 0.00414049C 0.433694 -0.040075 0.0490841 0.274881 0.00494352 0.708666L 0.00306955 0.728011C -0.0348211 1.16235 0.2826 1.54805 0.712444 1.58634C 0.735959 1.58848 0.759318 1.5895 0.782443 1.5895C 1.1826 1.5895 1.52323 1.28228 1.55908 0.871711L 0.782052 0.789517L 1.55916 0.870369C 1.60338 0.436583 1.29127 0.0487508 0.862054 0.00414049Z"/>
<path id="path8_fill" d="M 1.1061 0.0701763C 0.712974 -0.109291 0.250162 0.0673322 0.0725837 0.464719L 0.0616474 0.490065C -0.106087 0.891794 0.0802403 1.35495 0.47774 1.52447C 0.576959 1.56671 0.679771 1.58677 0.781099 1.58677C 1.08305 1.58669 1.37016 1.40872 1.49782 1.11208C 1.67337 0.715247 1.49852 0.24917 1.1061 0.0701763Z"/>
<path id="path9_fill" d="M 1.46439 0.406757C 1.46087 0.40044 1.45329 0.387413 1.44962 0.381254C 1.22681 0.00802806 0.74712 -0.111354 0.377745 0.113593C 0.00969797 0.337828 -0.109442 0.820804 0.109777 1.19363C 0.25462 1.44487 0.516184 1.58573 0.785403 1.58573C 0.915871 1.58573 1.04821 1.55257 1.16985 1.48293C 1.54525 1.26793 1.67712 0.786142 1.46439 0.406757Z"/>
<path id="path10_fill" d="M 1.56129 0.747182L 1.56082 0.739286C 1.53543 0.304 1.16653 -0.0245367 0.735199 0.00143987C 0.304496 0.0270217 -0.0239422 0.404591 0.00137028 0.839876C 0.0258234 1.25945 0.370042 1.58309 0.780589 1.58309C 0.79598 1.58309 0.811603 1.58262 0.827228 1.58167C 1.25793 1.55609 1.58661 1.18239 1.56129 0.747182Z"/>
<path id="path11_fill" d="M 1.50987 0.504326L 0.781506 0.789832L 1.50916 0.50251C 1.35213 0.0962807 0.899164 -0.104348 0.497211 0.0543541C 0.0953363 0.213135 -0.103259 0.671002 0.0537718 1.07723C 0.0547874 1.07984 0.0586957 1.08987 0.0597895 1.09247C 0.182289 1.39969 0.473929 1.58532 0.782601 1.58532C 0.879163 1.58532 0.977445 1.56716 1.0726 1.52878C 1.47229 1.36795 1.66729 0.908898 1.50987 0.504326Z"/>
<path id="path12_fill" d="M 1.54797 0.637333C 1.54687 0.632122 1.54414 0.619173 1.54296 0.613883C 1.44726 0.188941 1.02921 -0.0765885 0.608511 0.0197381C 0.188901 0.115907 -0.0744567 0.537612 0.0187464 0.961765C 0.0970277 1.33191 0.420776 1.58631 0.781948 1.58631C 0.834136 1.58631 0.887183 1.58102 0.940308 1.56996C 1.36289 1.48201 1.635 1.06449 1.54797 0.637333Z"/>
<path id="path13_fill" d="M 0.978737 0.0253215C 0.560846 -0.0836381 0.135377 0.169023 0.027721 0.591439C -0.0857947 1.01212 0.159595 1.44614 0.575845 1.56086C 0.644673 1.57981 0.713816 1.58889 0.781863 1.58889C 1.12546 1.58897 1.44038 1.35802 1.53514 1.00683C 1.53616 1.00327 1.53905 0.991982 1.53999 0.988429C 1.64756 0.566171 1.39655 0.134123 0.978737 0.0253215Z"/>
<path id="path14_fill" d="M 0.96727 0.0223236C 0.547738 -0.0801616 0.125629 0.17992 0.0239105 0.603599L 0.0221134 0.611258C -0.0795272 1.0351 0.17891 1.45806 0.598207 1.56079C 0.659457 1.57579 0.720786 1.58297 0.781176 1.58297C 1.1343 1.58297 1.45563 1.33758 1.54243 0.975721C 1.64407 0.551884 1.38657 0.125125 0.96727 0.0223236Z"/>
<path id="path15_fill" d="M 1.08665 0.0616613C 0.688756 -0.107068 0.230944 0.0824271 0.0640686 0.484393L 0.0616469 0.490157C -0.106087 0.891886 0.080241 1.35496 0.477741 1.52456C 0.57696 1.5668 0.679772 1.58686 0.7811 1.58686C 1.08579 1.58686 1.3754 1.4055 1.50126 1.10396L 1.50501 1.09512C 1.67188 0.692996 1.48454 0.230312 1.08665 0.0616613Z"/>
<path id="path16_fill" d="M 1.54327 0.614817C 1.44764 0.189559 1.02897 -0.0769977 0.608269 0.0198816C 0.187566 0.116524 -0.0760278 0.539572 0.0195972 0.964752C 0.0204566 0.968463 0.0230347 0.979753 0.0239722 0.983464C 0.110691 1.345 0.431081 1.58874 0.783816 1.58874C 0.844441 1.58874 0.90616 1.58148 0.967722 1.56648C 1.38702 1.46368 1.64491 1.03858 1.54327 0.614817Z"/>
<path id="path17_fill" d="M 1.45033 0.381789C 1.22737 0.00840516 0.74721 -0.111689 0.377757 0.113731C 0.00830393 0.339072 -0.110446 0.824338 0.112444 1.19772C 0.114241 1.20056 0.120023 1.21012 0.121741 1.21288C 0.269866 1.45401 0.525725 1.58682 0.787444 1.58682C 0.927913 1.58682 1.0701 1.54853 1.19807 1.46823C 1.56463 1.23823 1.67791 0.752331 1.45033 0.381789Z"/>
<path id="path18_fill" d="M 1.5605 0.731629C 1.52886 0.296738 1.15464 -0.029746 0.724014 0.00215234C 0.293701 0.0340507 -0.0295022 0.412566 0.00213847 0.847457L 0.00276343 0.855274C 0.0329978 1.27027 0.375029 1.58309 0.780185 1.58309C 0.799638 1.58309 0.819248 1.5823 0.838935 1.58088C 1.26925 1.54898 1.59214 1.16652 1.5605 0.731629Z"/>
<path id="path19_fill" d="M 0.850577 0.00309862C 0.421436 -0.0351952 0.0416706 0.285841 0.00370187 0.720179C 0.00338937 0.724048 0.00245184 0.735655 0.00213934 0.739524C -0.0295013 1.17442 0.293546 1.55475 0.723858 1.58672C 0.743468 1.58822 0.762921 1.58886 0.782296 1.58886C 1.18761 1.58886 1.52995 1.27406 1.56019 0.858985C 1.59808 0.424647 1.28042 0.0414713 0.850577 0.00309862Z"/>
<path id="path20_fill" d="M 1.55252 0.625858C 1.46307 0.199416 1.04877 -0.0731415 0.626194 0.0173423L 0.599241 0.023501C 0.17971 0.124723 -0.0784934 0.550297 0.0215066 0.974292C 0.106975 1.33702 0.427835 1.58091 0.781429 1.58091C 0.839866 1.58091 0.899163 1.5742 0.958459 1.5603C 1.37596 1.46627 1.64151 1.0497 1.55252 0.625858Z"/>
<path id="path21_fill" d="M 1.46452 0.395497C 1.24913 0.0176914 0.771394 -0.112191 0.397566 0.105649C 0.390222 0.109991 0.376238 0.118439 0.368972 0.123019C 0.00248786 0.352861 -0.109778 0.839152 0.117566 1.20969C 0.2653 1.45051 0.520769 1.58292 0.782253 1.58292C 0.921003 1.58292 1.06147 1.54565 1.18835 1.46749C 1.55397 1.24688 1.67788 0.76967 1.46452 0.395497Z"/>
<path id="path22_fill" d="M 1.51975 0.512466C 1.36827 0.104184 0.917798 -0.102524 0.513892 0.0504146C 0.505923 0.0534149 0.490766 0.0594944 0.482953 0.0627316C 0.0842032 0.229013 -0.105171 0.690276 0.0592822 1.09335C 0.183501 1.39804 0.474985 1.58201 0.782172 1.58201C 0.879594 1.58201 0.978578 1.56353 1.07428 1.52445C 1.47053 1.36709 1.66983 0.916801 1.51975 0.512466Z"/>
<path id="path23_fill" d="M 1.38822 0.285201C 1.11259 -0.0502839 0.620013 -0.0963943 0.28806 0.182005L 0.276498 0.191875C -0.0528774 0.473512 -0.0937371 0.971568 0.184935 1.30445C 0.339466 1.48897 0.559779 1.58395 0.781654 1.58395C 0.960013 1.58395 1.13939 1.5226 1.28619 1.39706C 1.61814 1.11851 1.66384 0.620686 1.38822 0.285201Z"/>
<path id="path24_fill" d="M 1.30137 0.19682C 0.977464 -0.0912121 0.483792 -0.0593926 0.198714 0.267881C 0.197308 0.269539 0.190746 0.277119 0.189339 0.278777C -0.0920669 0.607551 -0.0551141 1.1015 0.269027 1.3874C 0.416292 1.51736 0.598714 1.58077 0.780667 1.58077C 0.999027 1.58077 1.21676 1.48918 1.37176 1.31113C 1.65676 0.983777 1.62528 0.484853 1.30137 0.19682Z"/>
<path id="path25_fill" d="M 1.50524 0.492608C 1.34282 0.0886675 0.88712 -0.105881 0.487432 0.0582688C 0.0876667 0.222419 -0.104755 0.682972 0.0576668 1.08691C 0.0587605 1.0896 0.0628231 1.09955 0.063995 1.10231C 0.189464 1.40479 0.479698 1.58718 0.785245 1.58718C 0.88587 1.58718 0.988213 1.56736 1.08673 1.52559C 1.48462 1.35694 1.67212 0.894732 1.50524 0.492608Z"/>
<path id="path26_fill" d="M 1.19695 0.118902C 0.830386 -0.111177 0.348745 0.00275713 0.121167 0.373378L 0.117027 0.380089C -0.110551 0.75063 0.00421461 1.234 0.370855 1.464C 0.498199 1.5439 0.639761 1.58188 0.779761 1.58188C 1.04265 1.58188 1.30023 1.44797 1.44875 1.20613C 1.67632 0.835667 1.56351 0.348901 1.19695 0.118902Z"/>
<path id="path27_fill" d="M 39.2188 28.3285L 37.9796 28.3285C 37.976 28.3227 37.973 28.3168 37.9693 28.3111L 25.0362 8.91757C 24.7654 8.51142 24.3787 8.21107 23.937 8.04739L 23.937 5.84665L 27.8404 3.3694C 28.085 3.21417 28.2249 2.93522 28.2041 2.64403C 28.1834 2.35283 28.0054 2.09702 27.7413 1.97874L 23.4721 0.0676051C 23.2305 -0.040486 22.9512 -0.0179044 22.7296 0.12777C 22.5081 0.273523 22.3745 0.522472 22.3745 0.789581L 22.3745 5.39818C 22.3744 5.40662 22.3744 5.41515 22.3745 5.4236L 22.3745 8.04732C 21.9329 8.21099 21.5462 8.51134 21.2753 8.91749L 15.9778 16.8613L 14.7181 14.9724C 14.296 14.3393 13.593 13.9615 12.8377 13.9615C 12.0823 13.9615 11.3793 14.3393 10.9572 14.9724L 2.05047 28.3285L 0.78125 28.3285C 0.349766 28.3285 0 28.6821 0 29.118C 0 29.554 0.349766 29.9076 0.78125 29.9076L 2.4643 29.9076C 2.46461 29.9076 2.465 29.9077 2.46531 29.9077C 2.4657 29.9077 2.46617 29.9076 2.46656 29.9076L 39.2188 29.9076C 39.6502 29.9076 40 29.554 40 29.118C 40 28.6821 39.6502 28.3285 39.2188 28.3285ZM 23.937 2.0029L 25.7656 2.82152L 23.937 3.98202L 23.937 2.0029ZM 3.93469 28.3285L 12.253 15.8551C 12.3862 15.6553 12.5994 15.5407 12.8377 15.5407C 13.0761 15.5407 13.2892 15.6553 13.4225 15.8551L 15.0358 18.2741L 12.2661 22.4274C 12.025 22.789 12.1195 23.2797 12.4773 23.5234C 12.8353 23.7673 13.3208 23.6715 13.5618 23.3099L 22.571 9.80014C 22.7043 9.60038 22.9174 9.48582 23.1558 9.48582C 23.3941 9.48582 23.6073 9.60038 23.7405 9.80014L 36.0966 28.3285L 3.93469 28.3285Z"/>
<path id="path28_fill" d="M 0.78125 1.57912C 1.21272 1.57912 1.5625 1.22563 1.5625 0.789562C 1.5625 0.353499 1.21272 0 0.78125 0C 0.349778 0 0 0.353499 0 0.789562C 0 1.22563 0.349778 1.57912 0.78125 1.57912Z"/>
</defs>
</svg>
