<svg width="317" height="217" viewBox="0 0 317 217" version="1.1" xmlns="http://www.w3.org/2000/svg" xmlns:xlink="http://www.w3.org/1999/xlink">
<title>Mask</title>
<desc>Created using Figma</desc>
<g id="Canvas" transform="translate(261 -769)">
<g id="Mask">
<use xlink:href="#path0_fill" transform="translate(-537 713)" fill="#F7F8FD"/>
</g>
</g>
<defs>
<path id="path0_fill" fill-rule="evenodd" d="M 544.202 234.207C 528.829 219.152 510.434 207.557 488.964 199.427C 467.487 191.337 443.876 187.272 418.101 187.272C 360.645 187.272 313.094 205.164 275.447 240.933C 262.567 253.173 247.951 262.521 231.606 268.979C 215.269 275.459 197.677 278.688 178.838 278.688C 163.327 278.688 149.124 276.126 136.251 270.98C 123.348 265.834 112.281 258.74 103.041 249.614C 93.8019 240.519 86.6199 229.506 81.5106 216.591C 76.3785 203.661 73.8315 189.251 73.8315 173.368C 73.8315 158.145 76.2943 144.041 81.2659 131.134C 86.1992 118.227 93.3047 107.045 102.544 97.6124C 111.807 88.1871 122.935 80.8938 136.007 75.7478C 149.04 70.6325 163.664 68.0403 179.84 68.0403C 198.342 68.0403 215.1 70.8012 230.137 76.2463C 245.144 81.699 258.437 89.5752 270.009 99.8364L 311.12 45.7079C 294.286 30.7915 275.111 19.4412 253.664 11.6801C 232.195 3.89591 208.584 0 182.808 0C 154.394 0 128.985 4.56312 106.514 13.6587C 84.0652 22.7849 64.898 35.2702 49.0502 51.1606C 33.21 67.0664 21.0565 85.5949 12.6278 106.792C 4.222 127.99 0 150.529 0 174.365C 0 200.516 4.30614 224.214 12.8725 245.388C 21.4771 266.586 33.4318 284.723 48.8054 299.801C 64.1714 314.848 82.5661 326.451 104.043 334.573C 125.513 342.671 149.124 346.728 174.899 346.728C 232.355 346.728 279.914 328.844 317.56 293.067C 330.433 280.827 345.057 271.479 361.394 265.029C 377.739 258.541 395.323 255.32 414.162 255.32C 429.673 255.32 443.876 257.874 456.749 263.02C 469.652 268.173 480.719 275.267 489.959 284.386C 499.198 293.481 506.388 304.502 511.489 317.409C 516.622 330.347 519.176 344.757 519.176 360.64C 519.176 375.855 516.706 389.959 511.742 402.866C 506.801 415.773 499.695 426.955 490.456 436.388C 481.193 445.821 470.065 453.106 457.001 458.252C 443.96 463.375 429.336 465.96 413.167 465.96C 394.658 465.96 377.9 463.206 362.863 457.754C 347.856 452.301 334.563 444.425 322.998 434.164L 281.88 488.3C 298.722 503.209 317.889 514.559 339.336 522.32C 360.813 530.112 384.424 534 410.2 534C 438.606 534 464.022 529.445 486.494 520.341C 508.935 511.223 528.11 498.73 543.95 482.847C 559.79 466.934 571.944 448.405 580.38 427.208C 588.786 406.01 593 383.478 593 359.635C 593 333.491 588.702 309.786 580.128 288.619C 571.531 267.422 559.568 249.284 544.202 234.207Z"/>
</defs>
</svg>
